<svg xmlns="http://www.w3.org/2000/svg" viewBox="0 0 64 64">
  <defs>
    <linearGradient id="sonic" x1="8" y1="8" x2="56" y2="56" gradientUnits="userSpaceOnUse">
      <stop stop-color="#e8e0d8"/>
      <stop offset="1" stop-color="#c79aa8"/>
    </linearGradient>
  </defs>
  <rect width="64" height="64" rx="18" fill="#4a1528"/>
  <circle cx="32" cy="32" r="22" fill="none" stroke="url(#sonic)" stroke-width="3"/>
  <circle cx="32" cy="32" r="13" fill="none" stroke="#e8e0d8" stroke-opacity=".7" stroke-width="2"/>
  <path d="M39 18c-9 0-16 5-16 12 0 6 5 9 11 9 4 0 7-1 10-3-2 7-8 11-16 11-5 0-9-1-12-4 3 7 10 11 18 11 12 0 20-8 20-19 0-10-6-17-15-17Z" fill="url(#sonic)"/>
</svg>
